<?xml version="1.0" encoding="iso-8859-1"?>
<!-- Generator: Adobe Illustrator 19.0.0, SVG Export Plug-In . SVG Version: 6.00 Build 0)  -->
<svg xmlns="http://www.w3.org/2000/svg" xmlns:xlink="http://www.w3.org/1999/xlink" version="1.1" id="Layer_1" x="0px" y="0px" viewBox="0 0 512 512" style="enable-background:new 0 0 512 512;" xml:space="preserve" width="30px" height="30px">
<g>
	<g>
		<g>
			<path d="M362.668,170.667V192c0,11.776,9.557,21.333,21.333,21.333s21.333-9.557,21.333-21.333v-21.333     c0-11.776-9.557-21.333-21.333-21.333S362.668,158.891,362.668,170.667z" fill="#00b33c"/>
			<path d="M341.334,128h21.333c11.776,0,21.333-9.557,21.333-21.333s-9.557-21.333-21.333-21.333h-21.333     c-11.776,0-21.333,9.557-21.333,21.333S329.558,128,341.334,128z" fill="#00b33c"/>
			<path d="M149.334,341.333V320c0-11.776-9.557-21.333-21.333-21.333s-21.333,9.557-21.333,21.333v21.333     c0,11.776,9.557,21.333,21.333,21.333S149.334,353.109,149.334,341.333z" fill="#00b33c"/>
			<path d="M170.668,384h-21.333c-11.776,0-21.333,9.557-21.333,21.333s9.557,21.333,21.333,21.333h21.333     c11.776,0,21.333-9.557,21.333-21.333S182.444,384,170.668,384z" fill="#00b33c"/>
			<path d="M469.396,298.667h-64.064v-21.333c0-11.776-9.557-21.333-21.333-21.333s-21.333,9.557-21.333,21.333v21.333h-64.064     c-23.488,0-42.603,19.115-42.603,42.603V384c-11.776,0-21.333,9.557-21.333,21.333s9.557,21.333,21.333,21.333v42.731     c0,23.488,19.115,42.603,42.603,42.603h170.795c23.488,0,42.603-19.115,42.603-42.603V341.269     C511.999,317.781,492.884,298.667,469.396,298.667z" fill="#66ff99"/>
			<path d="M256.001,170.731V128c11.776,0,21.333-9.557,21.333-21.333s-9.557-21.333-21.333-21.333V42.603     C256.001,19.115,236.886,0,213.398,0H42.604C19.116,0,0.001,19.115,0.001,42.603v128.128c0,23.488,19.115,42.603,42.603,42.603     h64.064v21.333c0,11.776,9.557,21.333,21.333,21.333s21.333-9.557,21.333-21.333v-21.333h64.064     C236.886,213.333,256.001,194.219,256.001,170.731z" fill="#66ff99"/>
		</g>
	</g>
</g>
<g>
</g>
<g>
</g>
<g>
</g>
<g>
</g>
<g>
</g>
<g>
</g>
<g>
</g>
<g>
</g>
<g>
</g>
<g>
</g>
<g>
</g>
<g>
</g>
<g>
</g>
<g>
</g>
<g>
</g>
</svg>
