<?xml version="1.0" encoding="iso-8859-1"?>
<!-- Generator: Adobe Illustrator 19.0.0, SVG Export Plug-In . SVG Version: 6.00 Build 0)  -->
<svg version="1.1" id="Layer_1" xmlns="http://www.w3.org/2000/svg" xmlns:xlink="http://www.w3.org/1999/xlink" x="0px" y="0px"
	 viewBox="0 0 512 512" style="enable-background:new 0 0 512 512;" xml:space="preserve">
<g>
	<path style="fill:#42B05C;" d="M92.69,155.366c-1.766,0-3.531,0-4.414-1.766l-22.069-14.124c-4.414-2.648-5.297-7.945-2.648-12.359
		s7.945-5.297,12.359-2.648l22.069,14.124c4.414,2.648,5.297,7.945,2.648,12.359C98.869,153.6,96.221,155.366,92.69,155.366
		 M141.241,185.379c-1.766,0-3.531,0-4.414-1.766l-18.538-11.476c-4.414-2.648-5.297-7.945-2.648-12.359s7.945-5.297,12.359-2.648
		l18.538,11.476c4.414,2.648,5.297,7.945,2.648,12.359C147.421,183.614,143.89,185.379,141.241,185.379"/>
	<path style="fill:#42B05C;" d="M418.428,154.483c-3.531,0-6.179-1.766-7.945-4.414c-2.648-4.414-0.883-9.71,3.531-12.359
		l22.952-13.241c4.414-2.648,9.71-0.883,12.359,3.531c2.648,4.414,0.883,9.71-3.531,12.359L422.841,153.6
		C421.076,153.6,419.31,154.483,418.428,154.483 M361.931,185.379c-3.531,0-6.179-1.766-7.945-4.414
		c-2.648-4.414-0.883-9.71,3.531-12.359l25.6-14.124c4.414-2.648,9.71-0.883,12.359,3.531c2.648,4.414,0.883,9.71-3.531,12.359
		l-25.6,14.124C364.579,185.379,363.697,185.379,361.931,185.379"/>
	<path style="fill:#42B05C;" d="M112.993,336.331c-2.648,0-5.297-1.766-7.062-3.531c-2.648-4.414-1.766-9.71,2.648-12.359
		l1.766-0.883c4.414-2.648,9.71-1.766,12.359,2.648c2.648,4.414,1.766,9.71-2.648,12.359l-1.766,0.883
		C116.524,336.331,114.759,336.331,112.993,336.331 M61.793,370.759c-2.648,0-5.297-1.766-7.062-3.531
		c-2.648-4.414-1.766-9.71,2.648-12.359l22.069-15.007c4.414-2.648,9.71-1.766,12.359,2.648c2.648,4.414,1.766,9.71-2.648,12.359
		L67.09,369.876C65.324,369.876,63.559,370.759,61.793,370.759"/>
	<path style="fill:#42B05C;" d="M410.483,348.69c-2.648,0-4.414-0.883-6.179-2.648L391.062,332.8c-3.531-3.531-3.531-8.828,0-12.359
		c3.531-3.531,8.828-3.531,12.359,0l13.241,13.241c3.531,3.531,3.531,8.828,0,12.359C414.897,347.807,412.248,348.69,410.483,348.69
		 M441.379,379.586c-2.648,0-4.414-0.883-6.179-2.648l-12.359-12.359c-3.531-3.531-3.531-8.828,0-12.359
		c3.531-3.531,8.828-3.531,12.359,0l12.359,12.359c3.531,3.531,3.531,8.828,0,12.359
		C445.793,378.703,444.028,379.586,441.379,379.586"/>
</g>
<path style="fill:#7FABD9;" d="M367.228,221.572c0-48.552-39.724-89.159-88.276-89.159c-30.897,0-60.028,16.772-75.917,40.607
	c-7.062-4.414-17.655-5.297-26.483-5.297c-24.717,0-43.255,18.538-43.255,42.372c0,0.883,0,1.766,0,2.648c0,0.883,0,1.766,0,2.648
	c-22.069,10.593-36.193,33.545-36.193,60.028c0,36.193,27.366,67.972,63.559,67.972h57.379h60.91h77.683
	c33.545,0,58.262-26.483,58.262-60.91C414.897,254.234,396.359,226.869,367.228,221.572"/>
<path style="fill:#7383BF;" d="M356.634,353.103H160.662c-39.724,0-72.386-34.428-72.386-76.8c0-27.366,14.124-52.083,36.193-65.324
	l0,0c0-29.131,22.069-51.2,52.083-51.2c7.062,0,15.89,0.883,22.952,3.531c18.538-23.834,48.552-38.841,78.566-38.841
	c51.2,0,92.69,40.607,97.103,90.924c28.248,8.828,47.669,36.193,47.669,68.855C423.724,323.09,394.593,353.103,356.634,353.103z
	 M176.552,176.552c-20.303,0-34.428,14.124-34.428,33.545v2.648v0.883c0,1.766,0,1.766,0,2.648v5.297l-5.297,2.648
	c-19.421,8.828-30.897,29.131-30.897,52.083c0,32.662,24.717,59.145,54.731,59.145h195.972c28.248,0,49.434-22.069,49.434-52.083
	c0-26.483-16.772-49.434-40.607-53.848l-7.062-1.766v-7.062c-0.883-44.138-36.193-80.331-80.331-80.331
	c-26.483,0-53.848,14.124-68.855,37.076l-4.414,7.945l-7.062-5.297C192.441,176.552,182.731,176.552,176.552,176.552z"/>
<g>
	<path style="fill:#42B05C;" d="M35.31,194.207c-5.297,0-8.828-3.531-8.828-8.828v-35.31c0-5.297,3.531-8.828,8.828-8.828
		s8.828,3.531,8.828,8.828v35.31C44.138,190.676,40.607,194.207,35.31,194.207 M35.31,273.655c-5.297,0-8.828-3.531-8.828-8.828
		v-26.483c0-5.297,3.531-8.828,8.828-8.828s8.828,3.531,8.828,8.828v26.483C44.138,270.124,40.607,273.655,35.31,273.655
		 M35.31,361.931c-5.297,0-8.828-3.531-8.828-8.828v-52.966c0-5.297,3.531-8.828,8.828-8.828s8.828,3.531,8.828,8.828v52.966
		C44.138,358.4,40.607,361.931,35.31,361.931"/>
	<path style="fill:#42B05C;" d="M102.4,429.903c-0.883,0-2.648,0-3.531-0.883L67.09,414.014c-4.414-1.766-6.179-7.062-4.414-11.476
		c1.766-4.414,7.062-6.179,11.476-4.414l31.779,15.007c4.414,1.766,6.179,7.062,4.414,11.476
		C109.462,428.138,105.931,429.903,102.4,429.903 M166.841,459.917c-0.883,0-2.648,0-3.531-0.883l-23.834-11.476
		c-4.414-1.766-6.179-7.062-4.414-11.476s7.062-6.179,11.476-4.414l23.834,11.476c4.414,1.766,6.179,7.062,4.414,11.476
		C173.021,458.152,169.49,459.917,166.841,459.917 M220.69,485.517c-0.883,0-2.648,0-3.531-0.883l-22.069-10.593
		c-4.414-1.766-6.179-7.062-4.414-11.476c1.766-4.414,7.062-6.179,11.476-4.414l22.069,10.593c4.414,1.766,6.179,7.062,4.414,11.476
		C226.869,483.752,224.221,485.517,220.69,485.517"/>
	<path style="fill:#42B05C;" d="M476.69,194.207c-5.297,0-8.828-3.531-8.828-8.828v-35.31c0-5.297,3.531-8.828,8.828-8.828
		s8.828,3.531,8.828,8.828v35.31C485.517,190.676,481.986,194.207,476.69,194.207 M476.69,247.172c-5.297,0-8.828-3.531-8.828-8.828
		v-26.483c0-5.297,3.531-8.828,8.828-8.828s8.828,3.531,8.828,8.828v26.483C485.517,243.641,481.986,247.172,476.69,247.172
		 M476.69,308.966c-5.297,0-8.828-3.531-8.828-8.828v-26.483c0-5.297,3.531-8.828,8.828-8.828s8.828,3.531,8.828,8.828v26.483
		C485.517,305.434,481.986,308.966,476.69,308.966 M476.69,361.931c-5.297,0-8.828-3.531-8.828-8.828v-26.483
		c0-5.297,3.531-8.828,8.828-8.828s8.828,3.531,8.828,8.828v26.483C485.517,358.4,481.986,361.931,476.69,361.931"/>
</g>
<g>
	<path style="fill:#7383BF;" d="M369.876,232.166c-0.883,0-0.883,0-1.766,0c-5.297-0.883-21.186-3.531-30.897-2.648
		c-4.414,0.883-9.71-2.648-9.71-7.062c-0.883-4.414,2.648-9.71,7.062-9.71c15.007-2.648,36.193,2.648,37.076,2.648
		c4.414,0.883,7.945,6.179,7.062,10.593C376.938,229.517,373.407,232.166,369.876,232.166z"/>
	<path style="fill:#7383BF;" d="M220.69,220.69c-5.297,0-8.828-3.531-8.828-8.828c0-19.421-15.89-35.31-35.31-35.31
		c-20.303,0-34.428,14.124-34.428,33.545c0,5.297-3.531,8.828-8.828,8.828s-8.828-3.531-8.828-8.828
		c0-29.131,22.069-51.2,52.083-51.2s52.966,22.952,52.966,52.966C229.517,217.159,225.986,220.69,220.69,220.69z"/>
</g>
<g>
	<path style="fill:#42B05C;" d="M409.6,429.903c-3.531,0-6.179-1.766-7.945-5.297c-1.766-4.414,0-9.71,4.414-11.476l31.779-15.007
		c4.414-1.766,9.71,0,11.476,4.414c1.766,4.414,0,9.71-4.414,11.476l-31.779,15.007C412.248,429.903,410.483,429.903,409.6,429.903
		 M345.159,459.917c-3.531,0-6.179-1.766-7.945-5.297c-1.766-4.414,0-9.71,4.414-11.476l23.834-11.476
		c4.414-1.766,9.71,0,11.476,4.414c1.766,4.414,0,9.71-4.414,11.476l-22.952,11.476
		C347.807,459.917,346.924,459.917,345.159,459.917 M291.31,485.517c-3.531,0-6.179-1.766-7.945-5.297
		c-1.766-4.414,0-9.71,4.414-11.476l22.069-10.593c4.414-1.766,9.71,0,11.476,4.414c1.766,4.414,0,9.71-4.414,11.476l-22.069,10.593
		C293.959,485.517,292.193,485.517,291.31,485.517"/>
	<path style="fill:#42B05C;" d="M310.731,43.255c-0.883,0-2.648,0-3.531-0.883l-19.421-7.945c-4.414-1.766-7.062-7.062-4.414-11.476
		c2.648-4.414,7.062-7.062,11.476-4.414l19.421,7.945c4.414,1.766,7.062,7.062,4.414,11.476
		C317.793,41.49,314.262,43.255,310.731,43.255 M368.11,67.09c-0.883,0-2.648,0-3.531-0.883l-24.717-9.71
		c-4.414-2.648-6.179-7.062-4.414-11.476s7.062-7.062,11.476-4.414l24.717,9.71c4.414,1.766,7.062,7.062,4.414,11.476
		C374.29,64.441,371.641,67.09,368.11,67.09 M441.379,97.103c-0.883,0-2.648,0-3.531-0.883l-32.662-13.241
		c-4.414-1.766-7.062-7.062-4.414-11.476c1.766-4.414,7.062-7.062,11.476-4.414l32.662,13.241c4.414,1.766,7.062,7.062,4.414,11.476
		C448.441,95.338,444.91,97.103,441.379,97.103"/>
	<path style="fill:#42B05C;" d="M201.269,43.255c-3.531,0-7.062-1.766-7.945-5.297c-1.766-4.414,0-9.71,4.414-11.476l19.421-7.945
		c4.414-1.766,9.71,0,11.476,4.414c1.766,4.414,0,9.71-4.414,11.476L204.8,42.372C203.917,43.255,202.152,43.255,201.269,43.255
		 M143.89,67.09c-3.531,0-7.062-1.766-7.945-5.297c-1.766-4.414,0-9.71,4.414-11.476l24.717-9.71c4.414-1.766,9.71,0,11.476,4.414
		s0,9.71-4.414,11.476l-24.717,9.71C146.538,66.207,144.772,67.09,143.89,67.09 M70.621,97.103c-3.531,0-7.062-1.766-7.945-5.297
		c-1.766-4.414,0-9.71,4.414-11.476L99.752,67.09c4.414-1.766,9.71,0,11.476,4.414c1.766,4.414,0,9.71-4.414,11.476L74.152,96.221
		C73.269,97.103,71.503,97.103,70.621,97.103"/>
</g>
<g>
	<path style="fill:#ECBA16;" d="M70.621,114.759c0,19.421-15.89,35.31-35.31,35.31S0,134.179,0,114.759s15.89-35.31,35.31-35.31
		S70.621,95.338,70.621,114.759"/>
	<path style="fill:#ECBA16;" d="M291.31,35.31c0,19.421-15.89,35.31-35.31,35.31s-35.31-15.89-35.31-35.31S236.579,0,256,0
		S291.31,15.89,291.31,35.31"/>
	<path style="fill:#ECBA16;" d="M291.31,476.69c0,19.421-15.89,35.31-35.31,35.31s-35.31-15.89-35.31-35.31
		c0-19.421,15.89-35.31,35.31-35.31S291.31,457.269,291.31,476.69"/>
	<path style="fill:#ECBA16;" d="M512,114.759c0,19.421-15.89,35.31-35.31,35.31c-19.421,0-35.31-15.89-35.31-35.31
		s15.89-35.31,35.31-35.31C496.11,79.448,512,95.338,512,114.759"/>
	<path style="fill:#ECBA16;" d="M512,388.414c0,19.421-15.89,35.31-35.31,35.31c-19.421,0-35.31-15.89-35.31-35.31
		c0-19.421,15.89-35.31,35.31-35.31C496.11,353.103,512,368.993,512,388.414"/>
	<path style="fill:#ECBA16;" d="M70.621,388.414c0,19.421-15.89,35.31-35.31,35.31S0,407.835,0,388.414
		c0-19.421,15.89-35.31,35.31-35.31S70.621,368.993,70.621,388.414"/>
</g>
<g>
</g>
<g>
</g>
<g>
</g>
<g>
</g>
<g>
</g>
<g>
</g>
<g>
</g>
<g>
</g>
<g>
</g>
<g>
</g>
<g>
</g>
<g>
</g>
<g>
</g>
<g>
</g>
<g>
</g>
</svg>
